<svg xmlns="http://www.w3.org/2000/svg" width="512" height="512" viewBox="0 0 512 512"><g fill="none" fill-rule="evenodd" transform="translate(95 68.506)"><path fill="#0F172A" d="M-53.9778368,-68.506026 L375.977837,-68.506026 C390.242137,-68.506026 395.414716,-67.0208162 400.629531,-64.2319027 C405.844346,-61.4429893 409.936963,-57.3503721 412.725877,-52.1355573 C415.51479,-46.9207424 417,-41.7481626 417,-27.4838628 L417,402.471811 C417,416.736111 415.51479,421.90869 412.725877,427.123505 C409.936963,432.33832 405.844346,436.430937 400.629531,439.219851 C395.414716,442.008764 390.242137,443.493974 375.977837,443.493974 L-53.9778368,443.493974 C-68.2421366,443.493974 -73.4147164,442.008764 -78.6295313,439.219851 C-83.8443461,436.430937 -87.9369633,432.33832 -90.7258767,427.123505 C-93.5147902,421.90869 -95,416.736111 -95,402.471811 L-95,-27.4838628 C-95,-41.7481626 -93.5147902,-46.9207424 -90.7258767,-52.1355573 C-87.9369633,-57.3503721 -83.8443461,-61.4429893 -78.6295313,-64.2319027 C-73.4147164,-67.0208162 -68.2421366,-68.506026 -53.9778368,-68.506026 Z"/><path fill="#00D5BD" d="M283,135.689157 L232.656162,135.689157 C231.190328,126.262651 228.536661,117.877108 224.695164,110.53253 C220.853666,103.187952 216.051794,96.9421687 210.289548,91.7951807 C204.527301,86.6481928 198.006864,82.773494 190.728237,80.1710843 C183.399064,77.5686747 175.513885,76.2674699 167.072699,76.2674699 C152.111076,76.2674699 138.842746,80.546988 127.267707,89.1060241 C115.692668,97.6650602 106.619657,110.185542 100.048674,126.66747 C93.4776911,143.149398 90.1921997,163.274699 90.1921997,187.043373 C90.1921997,211.159036 93.5029641,231.457831 100.124493,247.939759 C106.695476,264.421687 115.743214,276.826506 127.267707,285.154217 C138.842746,293.539759 152.06053,297.73253 166.921061,297.73253 C175.210608,297.73253 182.969423,296.489157 190.197504,294.00241 C197.425585,291.457831 203.920749,287.727711 209.682995,282.812048 C215.495788,277.896386 220.398752,271.824096 224.391888,264.595181 C228.385023,257.424096 231.139782,249.212048 232.656162,239.959036 L283,240.306024 C281.129797,255.284337 277.060842,269.337349 270.793136,282.46506 C264.575975,295.650602 256.438066,307.245783 246.379407,317.250602 C236.320749,327.255422 224.568799,335.062651 211.123557,340.672289 C197.627769,346.224096 182.666147,349 166.23869,349 C142.027145,349 120.418721,342.609639 101.413417,329.828916 C82.3575663,316.990361 67.3706708,298.455422 56.4527301,274.224096 C45.4842434,249.992771 40,220.93253 40,187.043373 C40,153.038554 45.5095164,123.949398 56.5285491,99.7759036 C67.5981279,75.6024096 82.6355694,57.0963855 101.640874,44.2578313 C120.696724,31.4192771 142.229329,25 166.23869,25 C181.60468,25 195.883931,27.4578313 209.076443,32.373494 C222.268955,37.2891566 234.020905,44.4891566 244.332293,53.973494 C254.694228,63.5156627 263.211232,75.139759 269.883307,88.8457831 C276.555382,102.551807 280.927613,118.166265 283,135.689157 Z"/></g></svg>